<?xml version="1.0" encoding="utf-8"?>
<svg version="1.1" xmlns:xlink="http://www.w3.org/1999/xlink" width="43px" height="46px" xmlns="http://www.w3.org/2000/svg">
  <g transform="matrix(1 0 0 1 -1342 -1417 )">
    <path d="M 8.95402644230769 41.7516741071429  C 9.60006009615385 41.1099330357143  9.92307692307692 40.3355654761905  9.92307692307692 39.4285714285714  C 9.92307692307692 38.5215773809524  9.60006009615385 37.7472098214286  8.95402644230769 37.10546875  C 8.30799278846154 36.4637276785714  7.52844551282051 36.1428571428571  6.61538461538462 36.1428571428571  C 5.70232371794872 36.1428571428571  4.92277644230769 36.4637276785714  4.27674278846154 37.10546875  C 3.63070913461539 37.7472098214286  3.30769230769231 38.5215773809524  3.30769230769231 39.4285714285714  C 3.30769230769231 40.3355654761905  3.63070913461539 41.1099330357143  4.27674278846154 41.7516741071429  C 4.92277644230769 42.3934151785714  5.70232371794872 42.7142857142857  6.61538461538462 42.7142857142857  C 7.52844551282051 42.7142857142857  8.30799278846154 42.3934151785714  8.95402644230769 41.7516741071429  Z M 18.8771033653846 41.7516741071429  C 19.5231370192308 41.1099330357143  19.8461538461538 40.3355654761905  19.8461538461538 39.4285714285714  C 19.8461538461538 38.5215773809524  19.5231370192308 37.7472098214286  18.8771033653846 37.10546875  C 18.2310697115385 36.4637276785714  17.4515224358974 36.1428571428571  16.5384615384615 36.1428571428571  C 15.6254006410256 36.1428571428571  14.8458533653846 36.4637276785714  14.1998197115385 37.10546875  C 13.5537860576923 37.7472098214286  13.2307692307692 38.5215773809524  13.2307692307692 39.4285714285714  C 13.2307692307692 40.3355654761905  13.5537860576923 41.1099330357143  14.1998197115385 41.7516741071429  C 14.8458533653846 42.3934151785714  15.6254006410256 42.7142857142857  16.5384615384615 42.7142857142857  C 17.4515224358974 42.7142857142857  18.2310697115385 42.3934151785714  18.8771033653846 41.7516741071429  Z M 8.95402644230769 31.89453125  C 9.60006009615385 31.2527901785714  9.92307692307692 30.4784226190476  9.92307692307692 29.5714285714286  C 9.92307692307692 28.6644345238095  9.60006009615385 27.8900669642857  8.95402644230769 27.2483258928571  C 8.30799278846154 26.6065848214286  7.52844551282051 26.2857142857143  6.61538461538462 26.2857142857143  C 5.70232371794872 26.2857142857143  4.92277644230769 26.6065848214286  4.27674278846154 27.2483258928571  C 3.63070913461539 27.8900669642857  3.30769230769231 28.6644345238095  3.30769230769231 29.5714285714286  C 3.30769230769231 30.4784226190476  3.63070913461539 31.2527901785714  4.27674278846154 31.89453125  C 4.92277644230769 32.5362723214286  5.70232371794872 32.8571428571429  6.61538461538462 32.8571428571429  C 7.52844551282051 32.8571428571429  8.30799278846154 32.5362723214286  8.95402644230769 31.89453125  Z M 28.8001802884615 41.7516741071429  C 29.4462139423077 41.1099330357143  29.7692307692308 40.3355654761905  29.7692307692308 39.4285714285714  C 29.7692307692308 38.5215773809524  29.4462139423077 37.7472098214286  28.8001802884615 37.10546875  C 28.1541466346154 36.4637276785714  27.3745993589744 36.1428571428571  26.4615384615385 36.1428571428571  C 25.5484775641026 36.1428571428571  24.7689302884615 36.4637276785714  24.1228966346154 37.10546875  C 23.4768629807692 37.7472098214286  23.1538461538462 38.5215773809524  23.1538461538462 39.4285714285714  C 23.1538461538462 40.3355654761905  23.4768629807692 41.1099330357143  24.1228966346154 41.7516741071429  C 24.7689302884615 42.3934151785714  25.5484775641026 42.7142857142857  26.4615384615385 42.7142857142857  C 27.3745993589744 42.7142857142857  28.1541466346154 42.3934151785714  28.8001802884615 41.7516741071429  Z M 18.8771033653846 31.89453125  C 19.5231370192308 31.2527901785714  19.8461538461538 30.4784226190476  19.8461538461538 29.5714285714286  C 19.8461538461538 28.6644345238095  19.5231370192308 27.8900669642857  18.8771033653846 27.2483258928571  C 18.2310697115385 26.6065848214286  17.4515224358974 26.2857142857143  16.5384615384615 26.2857142857143  C 15.6254006410256 26.2857142857143  14.8458533653846 26.6065848214286  14.1998197115385 27.2483258928571  C 13.5537860576923 27.8900669642857  13.2307692307692 28.6644345238095  13.2307692307692 29.5714285714286  C 13.2307692307692 30.4784226190476  13.5537860576923 31.2527901785714  14.1998197115385 31.89453125  C 14.8458533653846 32.5362723214286  15.6254006410256 32.8571428571429  16.5384615384615 32.8571428571429  C 17.4515224358974 32.8571428571429  18.2310697115385 32.5362723214286  18.8771033653846 31.89453125  Z M 8.95402644230769 22.0373883928571  C 9.60006009615385 21.3956473214286  9.92307692307692 20.6212797619048  9.92307692307692 19.7142857142857  C 9.92307692307692 18.8072916666667  9.60006009615385 18.0329241071429  8.95402644230769 17.3911830357143  C 8.30799278846154 16.7494419642857  7.52844551282051 16.4285714285714  6.61538461538462 16.4285714285714  C 5.70232371794872 16.4285714285714  4.92277644230769 16.7494419642857  4.27674278846154 17.3911830357143  C 3.63070913461539 18.0329241071429  3.30769230769231 18.8072916666667  3.30769230769231 19.7142857142857  C 3.30769230769231 20.6212797619048  3.63070913461539 21.3956473214286  4.27674278846154 22.0373883928571  C 4.92277644230769 22.6791294642857  5.70232371794872 23  6.61538461538462 23  C 7.52844551282051 23  8.30799278846154 22.6791294642857  8.95402644230769 22.0373883928571  Z M 28.8001802884615 31.89453125  C 29.4462139423077 31.2527901785714  29.7692307692308 30.4784226190476  29.7692307692308 29.5714285714286  C 29.7692307692308 28.6644345238095  29.4462139423077 27.8900669642857  28.8001802884615 27.2483258928571  C 28.1541466346154 26.6065848214286  27.3745993589744 26.2857142857143  26.4615384615385 26.2857142857143  C 25.5484775641026 26.2857142857143  24.7689302884615 26.6065848214286  24.1228966346154 27.2483258928571  C 23.4768629807692 27.8900669642857  23.1538461538462 28.6644345238095  23.1538461538462 29.5714285714286  C 23.1538461538462 30.4784226190476  23.4768629807692 31.2527901785714  24.1228966346154 31.89453125  C 24.7689302884615 32.5362723214286  25.5484775641026 32.8571428571429  26.4615384615385 32.8571428571429  C 27.3745993589744 32.8571428571429  28.1541466346154 32.5362723214286  28.8001802884615 31.89453125  Z M 18.8771033653846 22.0373883928571  C 19.5231370192308 21.3956473214286  19.8461538461538 20.6212797619048  19.8461538461538 19.7142857142857  C 19.8461538461538 18.8072916666667  19.5231370192308 18.0329241071429  18.8771033653846 17.3911830357143  C 18.2310697115385 16.7494419642857  17.4515224358974 16.4285714285714  16.5384615384615 16.4285714285714  C 15.6254006410256 16.4285714285714  14.8458533653846 16.7494419642857  14.1998197115385 17.3911830357143  C 13.5537860576923 18.0329241071429  13.2307692307692 18.8072916666667  13.2307692307692 19.7142857142857  C 13.2307692307692 20.6212797619048  13.5537860576923 21.3956473214286  14.1998197115385 22.0373883928571  C 14.8458533653846 22.6791294642857  15.6254006410256 23  16.5384615384615 23  C 17.4515224358974 23  18.2310697115385 22.6791294642857  18.8771033653846 22.0373883928571  Z M 38.7103365384615 41.7388392857143  C 39.364983974359 41.0885416666667  39.6923076923077 40.3184523809524  39.6923076923077 39.4285714285714  L 39.6923076923077 29.5714285714286  C 39.6923076923077 28.6815476190476  39.364983974359 27.9114583333333  38.7103365384615 27.2611607142857  C 38.0556891025641 26.6108630952381  37.2804487179487 26.2857142857143  36.3846153846154 26.2857142857143  C 35.4887820512821 26.2857142857143  34.7135416666667 26.6108630952381  34.0588942307692 27.2611607142857  C 33.4042467948718 27.9114583333333  33.0769230769231 28.6815476190476  33.0769230769231 29.5714285714286  L 33.0769230769231 39.4285714285714  C 33.0769230769231 40.3184523809524  33.4042467948718 41.0885416666667  34.0588942307692 41.7388392857143  C 34.7135416666667 42.3891369047619  35.4887820512821 42.7142857142857  36.3846153846154 42.7142857142857  C 37.2804487179487 42.7142857142857  38.0556891025641 42.3891369047619  38.7103365384615 41.7388392857143  Z M 28.8001802884615 22.0373883928571  C 29.4462139423077 21.3956473214286  29.7692307692308 20.6212797619048  29.7692307692308 19.7142857142857  C 29.7692307692308 18.8072916666667  29.4462139423077 18.0329241071429  28.8001802884615 17.3911830357143  C 28.1541466346154 16.7494419642857  27.3745993589744 16.4285714285714  26.4615384615385 16.4285714285714  C 25.5484775641026 16.4285714285714  24.7689302884615 16.7494419642857  24.1228966346154 17.3911830357143  C 23.4768629807692 18.0329241071429  23.1538461538462 18.8072916666667  23.1538461538462 19.7142857142857  C 23.1538461538462 20.6212797619048  23.4768629807692 21.3956473214286  24.1228966346154 22.0373883928571  C 24.7689302884615 22.6791294642857  25.5484775641026 23  26.4615384615385 23  C 27.3745993589744 23  28.1541466346154 22.6791294642857  28.8001802884615 22.0373883928571  Z M 39.2013221153846 12.6551339285714  C 39.5286458333333 12.3299851190476  39.6923076923077 11.9449404761905  39.6923076923077 11.5  L 39.6923076923077 4.92857142857143  C 39.6923076923077 4.48363095238095  39.5286458333333 4.09858630952381  39.2013221153846 3.7734375  C 38.8739983974359 3.44828869047619  38.4863782051282 3.28571428571428  38.0384615384615 4  L 4.96153846153846 4  C 4.5136217948718 3.28571428571428  4.1260016025641 3.44828869047619  3.79867788461539 3.7734375  C 3.47135416666667 4.09858630952381  3.30769230769231 4.48363095238095  3.30769230769231 4.92857142857143  L 3.30769230769231 11.5  C 3.30769230769231 11.9449404761905  3.47135416666667 12.3299851190476  3.79867788461539 12.6551339285714  C 4.1260016025641 12.9802827380952  4.5136217948718 13.1428571428571  4.96153846153846 14  L 38.0384615384615 14  C 38.4863782051282 13.1428571428571  38.8739983974359 12.9802827380952  39.2013221153846 12.6551339285714  Z M 38.7232572115385 22.0373883928571  C 39.3692908653846 21.3956473214286  39.6923076923077 20.6212797619048  39.6923076923077 19.7142857142857  C 39.6923076923077 18.8072916666667  39.3692908653846 18.0329241071429  38.7232572115385 17.3911830357143  C 38.0772235576923 16.7494419642857  37.2976762820513 16.4285714285714  36.3846153846154 16.4285714285714  C 35.4715544871795 16.4285714285714  34.6920072115385 16.7494419642857  34.0459735576923 17.3911830357143  C 33.3999399038462 18.0329241071429  33.0769230769231 18.8072916666667  33.0769230769231 19.7142857142857  C 33.0769230769231 20.6212797619048  33.3999399038462 21.3956473214286  34.0459735576923 22.0373883928571  C 34.6920072115385 22.6791294642857  35.4715544871795 23  36.3846153846154 23  C 37.2976762820513 23  38.0772235576923 22.6791294642857  38.7232572115385 22.0373883928571  Z M 42.0180288461538 0.975446428571426  C 42.6726762820513 1.62574404761905  43 2.39583333333333  43 3.28571428571428  L 43 42.7142857142857  C 43 43.6041666666667  42.6726762820513 44.374255952381  42.0180288461538 45.0245535714286  C 41.3633814102564 45.6748511904762  40.588141025641 46  39.6923076923077 46  L 3.30769230769231 46  C 2.41185897435897 46  1.63661858974359 45.6748511904762  0.981971153846154 45.0245535714286  C 0.327323717948718 44.374255952381  0 43.6041666666667  0 42.7142857142857  L 0 3.28571428571428  C 0 2.39583333333333  0.327323717948718 1.62574404761905  0.981971153846154 0.975446428571426  C 1.63661858974359 0.325148809523812  2.41185897435897 0  3.30769230769231 0  L 39.6923076923077 0  C 40.588141025641 0  41.3633814102564 0.325148809523812  42.0180288461538 0.975446428571426  Z " fill-rule="nonzero" fill="#8a8a8a" stroke="none" fill-opacity="0.988235294117647" transform="matrix(1 0 0 1 1342 1417 )" />
  </g>
</svg>