<?xml version="1.0" encoding="utf-8"?>
<svg version="1.1" xmlns:xlink="http://www.w3.org/1999/xlink" width="50px" height="45px" xmlns="http://www.w3.org/2000/svg">
  <g transform="matrix(1 0 0 1 -1039 -1308 )">
    <path d="M 42.5124378109453 41.1328125  L 44.5771144278607 39.0485491071429  C 44.8922056384743 38.73046875  45.2653399668325 38.5714285714286  45.6965174129353 38.5714285714286  C 46.1276948590382 38.5714285714286  46.5008291873964 38.73046875  46.81592039801 39.0485491071429  L 50 42.2628348214286  L 47.7611940298507 44.5228794642857  L 45.6965174129353 42.4386160714286  L 43.6318407960199 44.5228794642857  C 43.3333333333333 44.8409598214286  42.9601990049751 45  42.5124378109453 45  C 42.0646766169154 45  41.6915422885572 44.8409598214286  41.3930348258706 44.5228794642857  L 39.3283582089552 42.4386160714286  L 37.2636815920398 44.5228794642857  C 36.9485903814262 44.8409598214286  36.575456053068 45  36.1442786069652 45  C 35.7131011608624 45  35.3399668325041 44.8409598214286  35.0248756218906 44.5228794642857  L 32.9601990049751 42.4386160714286  L 30.8955223880597 44.5228794642857  C 30.5804311774461 44.8409598214286  30.2072968490879 45  29.7761194029851 45  C 29.3449419568823 45  28.971807628524 44.8409598214286  28.6567164179104 44.5228794642857  L 26.592039800995 42.4386160714286  L 24.5273631840796 44.5228794642857  C 24.212271973466 44.8409598214286  23.8391376451078 45  23.407960199005 45  C 22.9767827529022 45  22.6036484245439 44.8409598214286  22.2885572139304 44.5228794642857  L 20.2238805970149 42.4386160714286  L 18.1592039800995 44.5228794642857  C 17.8441127694859 44.8409598214286  17.4709784411277 45  17.0398009950249 45  C 16.6086235489221 45  16.2354892205638 44.8409598214286  15.9203980099502 44.5228794642857  L 13.8557213930348 42.4386160714286  L 11.7910447761194 44.5228794642857  C 11.4759535655058 44.8409598214286  11.1028192371476 45  10.6716417910448 45  C 10.240464344942 45  9.86733001658375 44.8409598214286  9.55223880597015 44.5228794642857  L 7.48756218905473 42.4386160714286  L 5.4228855721393 44.5228794642857  C 5.1077943615257 44.8409598214286  4.7346600331675 45  4.30348258706468 45  C 3.87230514096186 45  3.49917081260365 44.8409598214286  3.18407960199005 44.5228794642857  L 0 41.30859375  L 2.23880597014925 39.0485491071429  L 4.30348258706468 41.1328125  L 6.3681592039801 39.0485491071429  C 6.6832504145937 38.73046875  7.05638474295191 38.5714285714286  7.48756218905473 38.5714285714286  C 7.91873963515755 38.5714285714286  8.29187396351576 38.73046875  8.60696517412935 39.0485491071429  L 10.6716417910448 41.1328125  L 12.7363184079602 39.0485491071429  C 13.0514096185738 38.73046875  13.424543946932 38.5714285714286  13.8557213930348 38.5714285714286  C 14.2868988391376 38.5714285714286  14.6600331674959 38.73046875  14.9751243781095 39.0485491071429  L 17.0398009950249 41.1328125  L 19.1044776119403 39.0485491071429  C 19.4195688225539 38.73046875  19.7927031509121 38.5714285714286  20.2238805970149 38.5714285714286  C 20.6550580431177 38.5714285714286  21.028192371476 38.73046875  21.3432835820896 39.0485491071429  L 23.407960199005 41.1328125  L 25.4726368159204 39.0485491071429  C 25.787728026534 38.73046875  26.1608623548922 38.5714285714286  26.592039800995 38.5714285714286  C 27.0232172470978 38.5714285714286  27.3963515754561 38.73046875  27.7114427860697 39.0485491071429  L 29.7761194029851 41.1328125  L 31.8407960199005 39.0485491071429  C 32.1558872305141 38.73046875  32.5290215588723 38.5714285714286  32.9601990049751 38.5714285714286  C 33.3913764510779 38.5714285714286  33.7645107794362 38.73046875  34.0796019900498 39.0485491071429  L 36.1442786069652 41.1328125  L 38.2089552238806 39.0485491071429  C 38.5240464344942 38.73046875  38.8971807628524 38.5714285714286  39.3283582089552 38.5714285714286  C 39.759535655058 38.5714285714286  40.1326699834163 38.73046875  40.4477611940299 39.0485491071429  L 42.5124378109453 41.1328125  Z M 7.48756218905473 36.0100446428571  L 5.4228855721393 38.0943080357143  C 5.1077943615257 38.4123883928571  4.7346600331675 38.5714285714286  4.30348258706468 38.5714285714286  C 3.87230514096186 38.5714285714286  3.49917081260365 38.4123883928571  3.18407960199005 38.0943080357143  L 0 34.8800223214286  L 2.23880597014925 32.6199776785714  L 4.30348258706468 34.6791294642857  L 6.3681592039801 32.6199776785714  C 6.6832504145937 32.3018973214286  7.05638474295191 32.1428571428571  7.48756218905473 32.1428571428571  C 7.91873963515755 32.1428571428571  8.29187396351576 32.3018973214286  8.60696517412935 32.6199776785714  L 10.6716417910448 34.6791294642857  L 12.2636815920398 33.0719866071429  L 12.2636815920398 25.7142857142857  L 7.03980099502488 17.8292410714286  C 6.75787728026534 17.3939732142857  6.69983416252073 16.9210379464286  6.86567164179105 16.4104352678571  C 7.03150912106136 15.8998325892857  7.36318407960199 15.5608258928571  7.86069651741293 15.3934151785714  L 12.2636815920398 13.9369419642857  L 12.2636815920398 6.42857142857143  L 15.4477611940299 6.42857142857143  L 15.4477611940299 3.21428571428571  L 21.81592039801 3.21428571428571  L 21.81592039801 0  L 28.18407960199 0  L 28.18407960199 3.21428571428571  L 34.5522388059701 3.21428571428571  L 34.5522388059701 6.42857142857143  L 37.7363184079602 6.42857142857143  L 37.7363184079602 13.9369419642857  L 42.1393034825871 15.3934151785714  C 42.636815920398 15.5608258928571  42.9684908789386 15.8998325892857  43.134328358209 16.4104352678571  C 43.3001658374793 16.9210379464286  43.2421227197347 17.3939732142857  42.9601990049751 17.8292410714286  L 37.7363184079602 25.7142857142857  L 37.7363184079602 33.0719866071429  L 38.2089552238806 32.6199776785714  C 38.5240464344942 32.3018973214286  38.8971807628524 32.1428571428571  39.3283582089552 32.1428571428571  C 39.759535655058 32.1428571428571  40.1326699834163 32.3018973214286  40.4477611940299 32.6199776785714  L 42.5124378109453 34.6791294642857  L 44.5771144278607 32.6199776785714  C 44.8922056384743 32.3018973214286  45.2653399668325 32.1428571428571  45.6965174129353 32.1428571428571  C 46.1276948590382 32.1428571428571  46.5008291873964 32.3018973214286  46.81592039801 32.6199776785714  L 50 35.8342633928571  L 47.7611940298507 38.0943080357143  L 45.6965174129353 36.0100446428571  L 43.6318407960199 38.0943080357143  C 43.3333333333333 38.4123883928571  42.9601990049751 38.5714285714286  42.5124378109453 38.5714285714286  C 42.0646766169154 38.5714285714286  41.6915422885572 38.4123883928571  41.3930348258706 38.0943080357143  L 39.3283582089552 36.0100446428571  L 37.2636815920398 38.0943080357143  C 36.9485903814262 38.4123883928571  36.575456053068 38.5714285714286  36.1442786069652 38.5714285714286  C 35.7131011608624 38.5714285714286  35.3399668325041 38.4123883928571  35.0248756218906 38.0943080357143  L 32.9601990049751 36.0100446428571  L 30.8955223880597 38.0943080357143  C 30.5804311774461 38.4123883928571  30.2072968490879 38.5714285714286  29.7761194029851 38.5714285714286  C 29.3449419568823 38.5714285714286  28.971807628524 38.4123883928571  28.6567164179104 38.0943080357143  L 26.592039800995 36.0100446428571  L 24.5273631840796 38.0943080357143  C 24.212271973466 38.4123883928571  23.8391376451078 38.5714285714286  23.407960199005 38.5714285714286  C 22.9767827529022 38.5714285714286  22.6036484245439 38.4123883928571  22.2885572139304 38.0943080357143  L 20.2238805970149 36.0100446428571  L 18.1592039800995 38.0943080357143  C 17.8441127694859 38.4123883928571  17.4709784411277 38.5714285714286  17.0398009950249 38.5714285714286  C 16.6086235489221 38.5714285714286  16.2354892205638 38.4123883928571  15.9203980099502 38.0943080357143  L 13.8557213930348 36.0100446428571  L 11.7910447761194 38.0943080357143  C 11.4759535655058 38.4123883928571  11.1028192371476 38.5714285714286  10.6716417910448 38.5714285714286  C 10.240464344942 38.5714285714286  9.86733001658375 38.4123883928571  9.55223880597015 38.0943080357143  L 7.48756218905473 36.0100446428571  Z M 18.6318407960199 9.64285714285714  L 15.4477611940299 9.64285714285714  L 15.4477611940299 12.8571428571429  L 25 9.64285714285714  L 34.5522388059701 12.8571428571429  L 34.5522388059701 9.64285714285714  L 31.3681592039801 9.64285714285714  L 31.3681592039801 7  L 18.6318407960199 7  L 18.6318407960199 9.64285714285714  Z " fill-rule="nonzero" fill="#8a8a8a" stroke="none" fill-opacity="0.988235294117647" transform="matrix(1 0 0 1 1039 1308 )" />
  </g>
</svg>