<?xml version="1.0" encoding="utf-8"?>
<svg version="1.1" xmlns:xlink="http://www.w3.org/1999/xlink" width="48px" height="38px" xmlns="http://www.w3.org/2000/svg">
  <g transform="matrix(1 0 0 1 -1337 -1312 )">
    <path d="M 4 0  L 44 0  C 45.1 0  46.0416666666667 0.387586805555552  46.825 1.16276041666667  C 47.6083333333333 1.93793402777778  48 2.86979166666667  48 3.95833333333333  L 48 34.0416666666667  C 48 35.1302083333333  47.6083333333333 36.0620659722222  46.825 36.8372395833333  C 46.0416666666667 37.6124131944444  45.1 38  44 38  L 4 38  C 2.9 38  1.95833333333333 37.6124131944444  1.175 36.8372395833333  C 0.391666666666667 36.0620659722222  0 35.1302083333333  0 34.0416666666667  L 0 3.95833333333333  C 0 2.86979166666667  0.391666666666667 1.93793402777778  1.175 1.16276041666667  C 1.95833333333333 0.387586805555552  2.9 0  4 0  Z M 44 3.16666666666667  L 4 3.16666666666667  C 3.78333333333333 3.16666666666667  3.59583333333333 3.24500868055555  3.4375 3.40169270833333  C 3.27916666666667 3.55837673611111  3.2 3.74392361111111  3.2 3.95833333333333  L 3.2 10  L 44.8 10  L 44.8 3.95833333333333  C 44.8 3.74392361111111  44.7208333333333 3.55837673611111  44.5625 3.40169270833333  C 44.4041666666667 3.24500868055555  44.2166666666667 3.16666666666667  44 3.16666666666667  Z M 4 34.8333333333333  L 44 34.8333333333333  C 44.2166666666667 34.8333333333333  44.4041666666667 34.7549913194444  44.5625 34.5983072916667  C 44.7208333333333 34.4416232638889  44.8 34.2560763888889  44 34.0416666666667  L 44 19  L 4 19  L 4 34.0416666666667  C 3.2 34.2560763888889  3.27916666666667 34.4416232638889  3.4375 34.5983072916667  C 3.59583333333333 34.7549913194444  3.78333333333333 34.8333333333333  4 34.8333333333333  Z M 12.8 31.6666666666667  L 6.4 31.6666666666667  L 6.4 28.5  L 12.8 28.5  L 12.8 31.6666666666667  Z M 25.6 31.6666666666667  L 16 31.6666666666667  L 16 28.5  L 25.6 28.5  L 25.6 31.6666666666667  Z " fill-rule="nonzero" fill="#8a8a8a" stroke="none" fill-opacity="0.988235294117647" transform="matrix(1 0 0 1 1337 1312 )" />
  </g>
</svg>